<svg width="152" height="153" viewBox="0 0 152 153" fill="none" xmlns="http://www.w3.org/2000/svg">
<g clip-path="url(#clip0_62_3248)">
<path d="M133.9 152.59H17.24C14.9752 152.59 12.7325 152.144 10.6402 151.277C8.54792 150.41 6.64696 149.139 5.04595 147.537C3.44493 145.935 2.17525 144.033 1.30945 141.941C0.443646 139.848 -0.00131081 137.605 2.9005e-06 135.34V17.24C2.9005e-06 12.6677 1.81635 8.28261 5.04948 5.04948C8.28261 1.81635 12.6677 0 17.24 0L133.9 0C136.164 0 138.406 0.445926 140.497 1.31232C142.589 2.17871 144.49 3.4486 146.091 5.04948C147.691 6.65036 148.961 8.55088 149.828 10.6425C150.694 12.7342 151.14 14.976 151.14 17.24V135.34C151.141 137.605 150.696 139.848 149.831 141.941C148.965 144.033 147.695 145.935 146.094 147.537C144.493 149.139 142.592 150.41 140.5 151.277C138.407 152.144 136.165 152.59 133.9 152.59Z" fill="url(#paint0_linear_62_3248)"/>
<path d="M49.7801 95.4098C56.1866 94.709 62.4774 93.1935 68.5001 90.8998C73.8801 88.9411 79.1278 86.6363 84.2101 83.9998C87.2035 82.3998 90.1668 80.7998 93.1001 79.1998C95.3338 77.9496 97.7605 77.081 100.28 76.6298C103.233 76.3565 104.833 77.5665 105.08 80.2598C105.253 82.0998 104.567 84.4331 103.02 87.2598C102.65 87.9898 101.49 89.8198 99.5301 92.7698C98.4501 94.3031 97.3401 95.8131 96.2001 97.2998C94.956 98.938 93.9151 100.721 93.1001 102.61C91.9135 105.316 91.2468 106.68 91.1001 106.7C91.0747 106.683 91.0534 106.661 91.0378 106.635C91.0223 106.609 91.0128 106.58 91.0101 106.55C91.0928 105.264 91.2937 103.989 91.6101 102.74C92.2301 99.5998 94.1001 95.9298 97.2201 91.7398C100.06 87.8698 101.44 85.5598 101.37 84.8298C101.37 84.2998 100.83 84.0798 99.8701 84.1598C98.4035 84.2998 95.6835 85.3465 91.7101 87.2998C82.8101 91.7398 77.4401 94.3598 75.6001 95.1598C64.3534 99.9731 54.9301 102.723 47.3301 103.41C39.2701 104.15 33.2701 102.573 29.3301 98.6798C26.4855 95.7453 24.7983 91.8809 24.5801 87.7998C24.0852 83.0958 24.8084 78.3436 26.6801 73.9998C27.3401 72.5598 27.8101 71.8298 28.0701 71.7998C28.1464 71.8845 28.186 71.996 28.1801 72.1098C28.1801 72.9054 28.0656 73.6968 27.8401 74.4598C27.3901 75.9998 27.0001 77.5098 26.5801 78.9998C26.1205 81.0223 25.9888 83.1055 26.1901 85.1698C26.4401 87.9098 28.0201 90.2698 30.9101 92.2298C35.1568 95.1165 41.4468 96.1765 49.7801 95.4098Z" fill="white"/>
<path d="M107.42 43.58C107.307 43.4734 107.307 43.3134 107.42 43.1L110 38C110.15 37.68 110.32 37.52 110.48 37.52C111.671 38.042 112.79 38.7141 113.81 39.52C115.81 40.87 116.75 41.67 116.75 41.94C116.75 42.79 115.87 44.59 114.13 47.34C113.92 47.71 113.7 47.81 113.49 47.66C111.552 46.1766 109.525 44.814 107.42 43.58Z" fill="white"/>
<path d="M42.8301 72.07C42.7201 71.97 42.7201 71.81 42.8301 71.6L45.3701 66.52C45.5301 66.2 45.6901 66.04 45.8501 66.04C47.0412 66.5613 48.1603 67.2334 49.1801 68.04C51.1401 69.3734 52.1201 70.1834 52.1201 70.47C52.1201 71.31 51.2467 73.11 49.5001 75.87C49.2901 76.24 49.0701 76.34 48.8601 76.18C46.9314 74.6944 44.918 73.322 42.8301 72.07Z" fill="white"/>
<path d="M126.54 76.2299C125.927 81.0566 123.927 84.7532 120.54 87.3199C114.92 91.7299 106.22 93.7199 99.1299 92.8199L102.44 84.8699C106.094 85.2293 109.784 84.9655 113.35 84.0899C117.052 83.3888 120.577 81.9577 123.72 79.8799C123.887 78.5466 123.083 77.3232 121.31 76.2099C119.752 75.1658 117.971 74.5013 116.11 74.2699L111.11 73.6399C110.266 73.5725 109.447 73.3208 108.711 72.9027C107.975 72.4846 107.34 71.9102 106.85 71.2199C105.89 69.7421 105.533 67.9531 105.85 66.2199C106.289 63.3644 107.586 60.7102 109.57 58.6099C111.717 56.1566 113.763 55.0532 115.71 55.2999C118.87 55.6999 121.587 57.8599 123.86 61.7799C126.367 66.1529 127.312 71.2487 126.54 76.2299ZM119.39 67.5599C117.86 64.4899 115.93 62.7999 113.63 62.5099C112 62.2999 111.11 62.7499 110.97 63.8599C110.83 64.9699 111.75 65.9299 113.77 66.4499C114.983 66.5966 116.857 66.9666 119.39 67.5599Z" fill="white"/>
<path d="M32.6799 115.04C34.8946 115.04 36.6899 113.343 36.6899 111.25C36.6899 109.157 34.8946 107.46 32.6799 107.46C30.4653 107.46 28.6699 109.157 28.6699 111.25C28.6699 113.343 30.4653 115.04 32.6799 115.04Z" fill="white"/>
<path d="M49.3701 115.04C51.5848 115.04 53.3801 113.343 53.3801 111.25C53.3801 109.157 51.5848 107.46 49.3701 107.46C47.1554 107.46 45.3601 109.157 45.3601 111.25C45.3601 113.343 47.1554 115.04 49.3701 115.04Z" fill="white"/>
</g>
<defs>
<linearGradient id="paint0_linear_62_3248" x1="2.9005e-06" y1="76.29" x2="151.14" y2="76.29" gradientUnits="userSpaceOnUse">
<stop stop-color="#FE5858"/>
<stop offset="1" stop-color="#EE9617"/>
</linearGradient>
<clipPath id="clip0_62_3248">
<rect width="151.14" height="152.59" fill="white"/>
</clipPath>
</defs>
</svg>
