<svg width="685" height="519" viewBox="0 0 685 519" fill="none" xmlns="http://www.w3.org/2000/svg">
<path d="M169.601 387.459C212.461 382.769 254.546 372.625 294.838 357.274C330.831 344.164 365.938 328.738 399.939 311.092C419.964 300.383 439.789 289.674 459.413 278.965C474.356 270.597 490.591 264.784 507.447 261.764C527.205 259.935 537.909 268.033 539.559 286.06C540.719 298.375 536.125 313.992 525.778 332.911C523.302 337.797 515.542 350.045 502.43 369.789C495.204 380.052 487.779 390.159 480.152 400.109C471.829 411.073 464.865 423.007 459.413 435.649C451.474 453.764 447.014 462.889 446.033 463.023C445.863 462.912 445.721 462.764 445.616 462.59C445.512 462.417 445.449 462.221 445.431 462.019C445.984 453.414 447.328 444.878 449.445 436.519C453.593 415.503 466.103 390.939 486.976 362.896C505.975 336.994 515.208 321.533 514.739 316.647C514.739 313.1 511.127 311.627 504.704 312.163C494.892 313.1 476.695 320.105 450.114 333.179C390.573 362.896 354.647 380.431 342.338 385.786C267.097 418.001 204.055 436.407 153.211 441.003C99.2893 445.956 59.1492 435.403 32.7905 409.345C13.7597 389.705 2.47269 363.84 1.01292 336.525C-2.29812 305.041 2.53985 273.235 15.062 244.162C19.4774 234.524 22.6217 229.638 24.3611 229.437C24.8715 230.004 25.1362 230.75 25.097 231.512C25.0971 236.837 24.331 242.134 22.8224 247.24C19.8119 257.548 17.2028 267.654 14.3929 277.627C11.3178 291.163 10.4369 305.106 11.7838 318.923C13.4564 337.261 24.0266 353.057 43.3607 366.175C71.771 385.496 113.851 392.59 169.601 387.459Z" fill="url(#paint0_linear_62_3238)"/>
<path d="M555.213 40.5597C554.455 39.8457 554.455 38.7748 555.213 37.347L572.473 3.21264C573.477 1.07088 574.614 0 575.685 0C583.651 3.49372 591.137 7.99221 597.962 13.386C611.342 22.4216 617.631 27.776 617.631 29.5831C617.631 35.2722 611.744 47.3196 600.103 65.7254C598.698 68.2018 597.226 68.8711 595.822 67.8671C582.859 57.9384 569.297 48.8186 555.213 40.5597Z" fill="url(#paint1_linear_62_3238)"/>
<path d="M123.105 231.244C122.369 230.574 122.369 229.503 123.105 228.098L140.098 194.097C141.168 191.956 142.239 190.885 143.309 190.885C151.278 194.373 158.765 198.872 165.587 204.271C178.699 213.195 185.255 218.616 185.255 220.535C185.255 226.157 179.413 238.204 167.728 256.677C166.323 259.153 164.851 259.823 163.446 258.752C150.543 248.808 137.074 239.623 123.105 231.244Z" fill="url(#paint2_linear_62_3238)"/>
<path d="M683.126 259.087C679.023 291.392 665.643 316.134 642.986 333.312C605.388 362.829 547.185 376.148 499.752 370.124L521.896 316.914C546.346 319.32 571.026 317.555 594.884 311.694C619.65 307.002 643.234 297.423 664.26 283.516C665.375 274.592 660.001 266.405 648.137 258.953C637.715 251.965 625.8 247.518 613.349 245.969L579.899 241.752C574.254 241.301 568.776 239.616 563.852 236.818C558.928 234.019 554.677 230.175 551.399 225.555C544.98 215.664 542.587 203.69 544.709 192.09C547.645 172.978 556.325 155.213 569.596 141.156C583.957 124.736 597.65 117.351 610.673 119.002C631.813 121.679 649.988 136.136 665.197 162.373C681.97 191.641 688.293 225.747 683.126 259.087ZM635.292 201.058C625.056 180.511 612.145 169.2 596.758 167.259C585.853 165.853 579.899 168.865 578.962 176.294C578.026 183.724 584.18 190.149 597.694 193.629C605.812 194.611 618.344 197.087 635.292 201.058Z" fill="url(#paint3_linear_62_3238)"/>
<path d="M55.2005 518.842C70.0166 518.842 82.0275 507.485 82.0275 493.475C82.0275 479.466 70.0166 468.109 55.2005 468.109C40.3844 468.109 28.3735 479.466 28.3735 493.475C28.3735 507.485 40.3844 518.842 55.2005 518.842Z" fill="url(#paint4_linear_62_3238)"/>
<path d="M166.858 518.842C181.674 518.842 193.685 507.485 193.685 493.475C193.685 479.466 181.674 468.109 166.858 468.109C152.042 468.109 140.031 479.466 140.031 493.475C140.031 507.485 152.042 518.842 166.858 518.842Z" fill="url(#paint5_linear_62_3238)"/>
<defs>
<linearGradient id="paint0_linear_62_3238" x1="-6.24052e-06" y1="225.436" x2="164.826" y2="619.639" gradientUnits="userSpaceOnUse">
<stop stop-color="#FE5858"/>
<stop offset="1" stop-color="#EE9617"/>
</linearGradient>
<linearGradient id="paint1_linear_62_3238" x1="554.645" y1="-1.17022" x2="622.294" y2="63.3878" gradientUnits="userSpaceOnUse">
<stop stop-color="#FE5858"/>
<stop offset="1" stop-color="#EE9617"/>
</linearGradient>
<linearGradient id="paint2_linear_62_3238" x1="122.553" y1="189.714" x2="190.229" y2="253.964" gradientUnits="userSpaceOnUse">
<stop stop-color="#FE5858"/>
<stop offset="1" stop-color="#EE9617"/>
</linearGradient>
<linearGradient id="paint3_linear_62_3238" x1="499.752" y1="114.446" x2="741.014" y2="297.34" gradientUnits="userSpaceOnUse">
<stop stop-color="#FE5858"/>
<stop offset="1" stop-color="#EE9617"/>
</linearGradient>
<linearGradient id="paint4_linear_62_3238" x1="28.3735" y1="467.24" x2="78.4617" y2="522.068" gradientUnits="userSpaceOnUse">
<stop stop-color="#FE5858"/>
<stop offset="1" stop-color="#EE9617"/>
</linearGradient>
<linearGradient id="paint5_linear_62_3238" x1="140.031" y1="467.24" x2="190.119" y2="522.068" gradientUnits="userSpaceOnUse">
<stop stop-color="#FE5858"/>
<stop offset="1" stop-color="#EE9617"/>
</linearGradient>
</defs>
</svg>
